<?xml version="1.0" standalone="no"?>
<!DOCTYPE svg PUBLIC "-//W3C//DTD SVG 20010904//EN"
 "http://www.w3.org/TR/2001/REC-SVG-20010904/DTD/svg10.dtd">
<svg version="1.0" xmlns="http://www.w3.org/2000/svg"
 width="841.000000pt" height="613.000000pt" viewBox="0 0 841.000000 613.000000"
 preserveAspectRatio="xMidYMid meet">

<g transform="translate(0.000000,613.000000) scale(0.100000,-0.100000)"
fill="#000000" stroke="none">
<path d="M2514 5920 c-628 -55 -1220 -432 -1509 -960 -27 -50 -76 -126 -108
-168 -387 -509 -513 -1176 -340 -1800 l26 -93 -25 -27 c-67 -73 -101 -160 -97
-250 2 -49 -1 -62 -19 -80 -51 -51 -10 -137 60 -131 28 3 43 -4 78 -34 68 -58
138 -80 239 -75 l84 5 131 -131 c72 -72 163 -154 203 -181 40 -28 72 -53 73
-56 0 -3 -20 -41 -45 -85 -54 -95 -98 -206 -133 -334 -22 -84 -25 -114 -25
-270 -1 -190 8 -248 63 -411 80 -238 240 -459 444 -611 95 -71 267 -157 391
-195 l90 -28 2660 0 2660 0 94 33 c376 131 645 419 748 799 25 89 27 115 27
283 1 172 -1 192 -27 284 -90 325 -310 594 -602 737 -127 62 -263 97 -436 111
l-137 12 6 201 c5 216 -4 334 -40 490 -49 212 -156 451 -285 635 -100 142
-321 359 -457 448 -318 210 -709 320 -1095 309 l-85 -2 -9 37 c-7 29 -4 49 12
93 12 30 24 81 28 112 5 43 12 62 32 79 18 16 25 31 25 59 0 46 -31 75 -80 75
-26 0 -44 9 -76 41 -43 42 -127 89 -160 89 -9 0 -38 30 -64 68 -109 154 -273
329 -421 450 -161 131 -408 269 -602 336 -240 84 -436 117 -681 117 -91 0
-192 4 -225 9 -94 14 -291 19 -391 10z m576 -401 c285 -79 497 -327 525 -614
7 -66 -7 -182 -24 -213 -5 -8 -35 29 -86 105 -143 214 -329 376 -520 456 -115
48 -290 87 -462 103 -40 4 -73 10 -73 14 0 27 123 103 220 136 136 48 280 52
420 13z m980 -135 c275 -182 526 -439 697 -715 41 -65 137 -251 166 -321 l16
-38 -42 -10 c-111 -28 -222 -66 -322 -112 -60 -27 -116 -52 -122 -55 -10 -4
-13 11 -13 55 0 92 -19 257 -42 362 -79 366 -266 684 -553 940 l-60 53 90 -48
c50 -26 133 -76 185 -111z m1088 -633 c15 -9 13 -57 -2 -54 -5 1 -15 15 -22
32 -14 32 -5 41 24 22z m-3969 -371 c67 -19 121 -90 121 -160 0 -113 -108
-202 -210 -171 -135 40 -174 199 -73 294 46 43 100 55 162 37z m4371 -226
c426 -72 785 -288 1033 -621 230 -310 327 -604 327 -989 0 -140 -7 -215 -36
-418 l-7 -49 134 7 c224 12 397 -15 545 -84 282 -131 484 -384 550 -690 18
-85 18 -290 -1 -377 -52 -246 -203 -477 -400 -613 -72 -49 -222 -117 -315
-142 l-85 -23 -2475 -3 c-1679 -2 -2507 1 -2574 8 -139 15 -245 44 -365 101
-233 110 -391 268 -507 504 -173 352 -147 749 69 1070 130 194 290 319 538
420 70 28 139 61 154 73 71 56 105 140 105 261 1 167 53 301 161 416 154 162
391 252 591 225 178 -25 288 -89 524 -308 73 -67 136 -122 140 -122 5 0 31 64
57 143 135 398 346 710 620 910 362 266 794 372 1217 301z m-4183 -168 c46
-50 46 -110 2 -160 -53 -61 -130 -58 -184 6 -48 57 -22 158 49 189 42 18 99 3
133 -35z m-577 -236 c96 -525 438 -974 927 -1218 66 -33 128 -59 228 -97 16
-6 11 -10 -32 -25 -175 -61 -351 -180 -495 -334 l-66 -71 -44 49 c-153 174
-265 341 -363 541 -151 307 -217 602 -217 960 -1 189 21 415 33 350 4 -22 17
-92 29 -155z m-303 -1270 c9 -24 9 -30 -2 -30 -19 0 -38 27 -31 45 9 23 21 18
33 -15z"/>
<path d="M898 5296 c-491 -169 -779 -735 -633 -1242 25 -85 76 -197 95 -209 7
-4 10 33 10 110 0 504 161 886 532 1259 59 59 108 110 108 112 0 8 -16 3 -112
-30z"/>
<path d="M370 5196 c-285 -62 -428 -435 -254 -663 14 -18 29 -33 33 -33 4 0
20 48 36 108 45 173 116 335 224 507 35 56 46 82 38 87 -14 9 -8 9 -77 -6z"/>
</g>
</svg>
