<?xml version="1.0" standalone="no"?>
<!DOCTYPE svg PUBLIC "-//W3C//DTD SVG 20010904//EN"
 "http://www.w3.org/TR/2001/REC-SVG-20010904/DTD/svg10.dtd">
<svg version="1.0" xmlns="http://www.w3.org/2000/svg"
 width="900.000000pt" height="583.000000pt" viewBox="0 0 900.000000 583.000000"
 preserveAspectRatio="xMidYMid meet">

<g transform="translate(0.000000,583.000000) scale(0.100000,-0.100000)"
fill="#000000" stroke="none">
<path d="M5310 5234 c0 -8 24 -28 54 -44 35 -20 58 -41 66 -61 12 -28 16 -30
46 -24 23 4 45 0 73 -15 40 -20 81 -27 81 -12 0 4 -24 17 -54 30 -40 17 -63
22 -89 17 -34 -7 -37 -5 -50 28 -11 25 -30 42 -71 65 -40 21 -56 26 -56 16z"/>
<path d="M5614 5228 l-19 -23 23 19 c21 18 27 26 19 26 -2 0 -12 -10 -23 -22z"/>
<path d="M3941 4993 c-1 -28 -71 -112 -93 -112 -22 -1 -24 -21 -3 -21 20 0 93
78 101 107 3 12 4 28 1 35 -3 7 -6 3 -6 -9z"/>
<path d="M2816 4813 c-14 -130 -19 -148 -46 -152 -14 -2 -62 2 -108 9 -89 13
-118 8 -55 -9 69 -20 149 -25 181 -10 29 12 29 14 36 112 7 109 1 144 -8 50z"/>
<path d="M3630 4866 c0 -2 7 -9 15 -16 9 -7 15 -8 15 -2 0 5 -7 12 -15 16 -8
3 -15 4 -15 2z"/>
<path d="M3740 4832 c0 -13 44 -52 58 -52 8 0 4 12 -10 30 -20 28 -48 40 -48
22z"/>
<path d="M6172 4715 c1 -52 8 -98 13 -103 6 -5 26 -12 45 -16 32 -5 34 -5 15
9 -11 8 -25 19 -31 24 -7 5 -17 48 -24 95 -7 47 -14 86 -17 86 -3 0 -3 -43 -1
-95z"/>
<path d="M2315 4714 c39 -62 190 -269 199 -276 6 -4 19 -8 29 -8 15 0 13 6
-13 38 -17 20 -68 89 -113 152 -46 64 -91 116 -102 118 -18 4 -18 4 0 -24z"/>
<path d="M6633 4718 c-6 -7 -41 -62 -78 -123 -78 -127 -101 -155 -127 -155
-22 0 -24 -16 -2 -24 30 -11 53 -6 65 15 8 15 8 19 0 15 -24 -15 -8 18 74 148
75 121 97 161 68 124z"/>
<path d="M6594 4613 c-37 -60 -74 -118 -82 -130 -8 -13 -12 -23 -9 -23 3 0 36
48 73 108 37 59 74 117 82 130 8 12 12 22 9 22 -3 0 -36 -48 -73 -107z"/>
<path d="M2716 4542 c-8 -13 75 -25 88 -12 7 7 0 10 -21 10 -17 0 -38 3 -46 6
-8 3 -18 1 -21 -4z"/>
<path d="M6225 4491 c-48 -17 -49 -18 -27 -30 18 -9 32 -10 60 -1 72 22 69 20
48 36 -23 17 -18 17 -81 -5z"/>
<path d="M3150 4372 c0 -18 34 -51 60 -57 14 -3 33 0 44 8 16 12 15 13 -16 9
-26 -3 -39 2 -61 24 -15 14 -27 22 -27 16z"/>
<path d="M2970 4352 c0 -26 43 -44 75 -32 36 14 31 30 -8 23 -24 -3 -39 0 -50
12 -16 15 -17 15 -17 -3z"/>
<path d="M3369 4351 c24 -44 87 -47 121 -5 14 17 14 17 -10 1 -33 -23 -62 -21
-95 5 l-28 21 12 -22z"/>
<path d="M3608 4333 l23 -23 1097 0 c691 0 1103 4 1112 10 10 6 -378 10 -1104
10 -880 0 -1123 3 -1136 13 -9 6 -5 2 8 -10z"/>
<path d="M1865 4211 c-49 -20 -60 -47 -63 -155 -4 -117 5 -148 50 -176 31 -18
51 -20 273 -20 l240 0 80 -80 c44 -44 85 -80 92 -80 9 0 13 17 13 53 0 65 18
93 69 107 67 18 83 46 89 153 6 114 -7 161 -52 188 -29 18 -53 19 -401 18
-203 0 -379 -4 -390 -8z m731 -72 c14 -15 16 -24 7 -37 -9 -15 -43 -17 -348
-20 -341 -2 -365 0 -365 34 0 7 7 20 16 28 13 14 59 16 343 16 318 0 328 -1
347 -21z m4 -134 c6 -8 9 -23 5 -35 -6 -20 -11 -20 -292 -18 -264 3 -287 4
-297 21 -9 15 -7 22 10 35 18 15 49 17 291 14 220 -2 273 -5 283 -17z"/>
<path d="M6134 4146 l-34 -34 0 -110 c0 -104 1 -112 26 -141 14 -17 42 -35 65
-41 47 -13 59 -33 59 -99 0 -27 5 -53 11 -57 6 -4 46 28 93 74 l81 81 253 3
254 3 29 33 c28 32 29 35 29 143 l0 111 -34 34 -34 34 -382 0 -382 0 -34 -34z
m770 -58 c8 -13 8 -23 0 -35 -10 -17 -40 -18 -344 -21 -342 -2 -360 -1 -360
37 0 40 12 41 359 39 305 -3 335 -4 345 -20z m-120 -130 c8 -13 8 -23 0 -35
-10 -16 -37 -18 -284 -21 -280 -2 -300 0 -300 37 0 40 14 41 299 39 248 -3
275 -5 285 -20z"/>
<path d="M3150 3906 c0 -2 8 -10 18 -17 15 -13 16 -12 3 4 -13 16 -21 21 -21
13z"/>
<path d="M5180 3889 c0 -19 50 -24 73 -6 15 10 11 12 -28 12 -25 0 -45 -3 -45
-6z"/>
<path d="M5597 3878 c2 -5 17 -8 33 -8 16 0 31 3 33 8 3 4 -12 7 -33 7 -21 0
-36 -3 -33 -7z"/>
<path d="M3528 3873 c189 -2 495 -2 680 0 185 1 31 2 -343 2 -374 0 -526 -1
-337 -2z"/>
<path d="M5413 3873 c9 -2 23 -2 30 0 6 3 -1 5 -18 5 -16 0 -22 -2 -12 -5z"/>
<path d="M5195 3671 c-12 -5 31 -9 108 -10 82 -1 127 2 127 9 0 12 -205 13
-235 1z"/>
<path d="M4790 3620 c-23 -7 -23 -8 -3 -9 12 -1 25 4 28 9 3 6 5 10 3 9 -2 -1
-14 -5 -28 -9z"/>
<path d="M4968 3623 c46 -2 118 -2 160 0 42 1 5 3 -83 3 -88 0 -123 -2 -77 -3z"/>
<path d="M5609 3024 c-2 -344 -3 -384 -13 -384 -6 0 -5 -5 2 -12 19 -19 14
-32 -5 -17 -15 11 -15 10 1 -8 15 -19 16 -25 6 -38 -9 -11 -9 -15 -1 -15 7 0
9 -4 6 -10 -9 -15 -839 -14 -868 1 -21 11 -21 11 -4 -7 17 -18 43 -19 459 -22
l441 -3 -7 372 c-3 205 -8 375 -11 377 -3 3 -5 -102 -6 -234z"/>
<path d="M2135 3230 c-3 -5 3 -10 15 -10 12 0 18 5 15 10 -3 6 -10 10 -15 10
-5 0 -12 -4 -15 -10z"/>
<path d="M5833 3233 c9 -2 25 -2 35 0 9 3 1 5 -18 5 -19 0 -27 -2 -17 -5z"/>
<path d="M3875 3200 c-13 -21 -72 -44 -130 -50 l-60 -7 53 -2 c35 -1 66 6 91
18 34 18 72 51 58 51 -3 0 -9 -5 -12 -10z"/>
<path d="M5010 3077 c0 -28 -50 -76 -91 -87 -49 -13 -75 -49 -63 -87 l8 -28 4
35 c4 38 27 70 50 70 40 0 120 85 99 106 -4 4 -7 0 -7 -9z"/>
<path d="M2720 3030 c-16 -5 3 -8 58 -9 49 -1 81 3 77 8 -6 11 -99 12 -135 1z"/>
<path d="M6178 3033 c72 -2 192 -2 265 0 72 1 13 3 -133 3 -146 0 -205 -2
-132 -3z"/>
<path d="M4558 2965 c4 -21 7 -23 26 -13 23 12 -3 -19 -113 -134 -57 -59 -63
-69 -51 -83 23 -28 26 -196 5 -250 -28 -75 -26 -75 -315 -75 l-255 0 -80 -82
c-46 -47 -57 -61 -27 -34 l54 48 16 -23 c9 -13 16 -28 14 -33 -12 -35 62 -71
143 -70 38 1 153 48 167 68 3 5 0 19 -7 29 -12 18 -10 23 21 53 34 33 36 34
120 34 56 0 95 5 114 15 29 15 29 15 77 -36 82 -88 117 -122 173 -171 l55 -47
-649 0 -650 -1 48 43 48 43 -7 77 c-6 61 -12 82 -31 102 -13 14 -24 33 -24 41
0 7 -9 23 -19 33 -19 19 -18 20 30 72 27 29 48 54 46 55 -1 1 -60 -51 -130
-115 l-128 -116 1 -125 c3 -193 11 -299 22 -270 6 15 12 20 16 14 4 -7 29 -16
56 -22 l48 -10 26 42 c26 42 64 66 137 85 57 15 1715 15 1810 -1 39 -6 118
-12 177 -13 l106 -2 4 46 c3 25 4 82 4 125 l-1 79 -447 -2 c-462 -2 -475 -2
-505 38 -9 12 -12 85 -13 265 0 235 6 296 20 188 l6 -47 12 41 c12 41 35 63
47 44 3 -6 16 -15 28 -21 12 -6 -12 23 -53 65 -74 75 -75 76 -126 76 -49 0
-51 -1 -46 -25z"/>
<path d="M2143 2958 c12 -11 33 -18 56 -17 l36 2 -42 6 c-23 4 -47 11 -55 17
-8 5 -5 1 5 -8z"/>
<path d="M3910 2966 c0 -2 7 -7 16 -10 8 -3 12 -2 9 4 -6 10 -25 14 -25 6z"/>
<path d="M2438 2953 c46 -2 118 -2 160 0 42 1 5 3 -83 3 -88 0 -123 -2 -77 -3z"/>
<path d="M5860 2950 c0 -5 15 -10 34 -10 19 0 38 5 41 10 4 6 -10 10 -34 10
-23 0 -41 -4 -41 -10z"/>
<path d="M6138 2953 c46 -2 118 -2 160 0 42 1 5 3 -83 3 -88 0 -123 -2 -77 -3z"/>
<path d="M3789 2913 c-13 -16 -12 -17 4 -4 9 7 17 15 17 17 0 8 -8 3 -21 -13z"/>
<path d="M4055 2830 c21 -22 41 -40 44 -40 3 0 -13 18 -34 40 -21 22 -41 40
-44 40 -3 0 13 -18 34 -40z"/>
<path d="M3802 2623 c92 -2 245 -2 340 0 95 1 20 3 -167 3 -187 0 -265 -2
-173 -3z"/>
<path d="M2512 2478 c-8 -8 -12 -48 -12 -104 0 -95 5 -124 22 -124 20 0 148
103 148 119 0 9 -28 36 -62 61 -82 60 -83 61 -96 48z"/>
<path d="M3773 2483 c75 -2 199 -2 275 0 75 1 13 3 -138 3 -151 0 -213 -2
-137 -3z"/>
<path d="M6518 2443 c-42 -35 -292 -265 -296 -273 -1 -3 59 -73 135 -155 l137
-150 -159 -5 -160 -5 145 -7 c80 -3 183 -3 230 0 l85 7 -1 32 c-1 17 -14 47
-28 66 -56 73 -52 137 7 137 43 0 73 -32 93 -96 8 -27 28 -62 44 -79 27 -28
29 -33 19 -68 -9 -35 -7 -44 26 -103 40 -71 42 -104 10 -177 -4 -10 -4 -37 1
-60 7 -33 14 -43 32 -45 22 -3 22 -2 16 53 -6 48 -4 60 15 85 16 23 21 43 21
95 0 57 -4 72 -30 110 -32 47 -35 55 -21 55 5 0 18 -14 29 -31 l20 -32 6 59
c18 181 18 211 2 242 -9 17 -16 36 -16 42 0 18 17 11 27 -12 7 -17 13 3 25 96
15 111 21 136 33 124 3 -2 -4 -69 -15 -148 -11 -79 -19 -148 -17 -154 2 -6 12
4 22 22 18 29 35 42 35 25 0 -3 -16 -29 -35 -57 l-34 -51 -6 -160 -6 -160 28
53 c36 66 51 58 18 -9 -29 -56 -31 -66 -9 -49 25 22 34 45 40 117 3 37 11 76
16 86 7 14 4 30 -14 63 l-23 45 28 49 c30 56 35 110 12 150 -8 14 -14 39 -14
55 0 17 6 41 14 55 21 37 19 103 -4 124 -17 16 -23 16 -47 4 -37 -17 -54 -52
-54 -108 0 -31 -10 -65 -32 -107 -31 -61 -32 -64 -20 -121 17 -82 15 -94 -15
-135 -29 -37 -45 -47 -42 -24 1 6 1 80 0 162 l-1 150 -106 115 c-58 63 -112
118 -119 123 -8 4 -26 -3 -47 -20z"/>
<path d="M4750 2430 c0 -5 5 -10 11 -10 5 0 7 5 4 10 -3 6 -8 10 -11 10 -2 0
-4 -4 -4 -10z"/>
<path d="M4868 2418 c6 -6 18 -8 28 -6 14 3 12 5 -9 10 -19 3 -25 2 -19 -4z"/>
<path d="M1913 2403 c-37 -18 -42 -27 -50 -107 -4 -43 -14 -75 -34 -107 -32
-51 -34 -65 -18 -137 15 -63 9 -86 -41 -146 -51 -61 -52 -94 -6 -182 35 -65
35 -65 20 -112 -9 -26 -18 -54 -20 -63 -9 -26 11 -84 30 -87 14 -3 16 1 9 25
-15 52 -8 92 20 121 23 24 27 37 27 85 0 46 -6 66 -30 105 -32 52 -35 62 -22
62 5 0 17 -16 28 -36 l19 -35 12 142 c10 121 10 147 -3 170 -20 39 -17 59 4
31 18 -23 18 -22 31 86 12 102 23 143 35 132 2 -3 -4 -66 -15 -140 -10 -74
-19 -144 -19 -155 l1 -20 15 20 c8 11 19 27 24 35 5 8 11 12 15 8 4 -3 -10
-31 -30 -61 l-36 -54 -5 -159 c-5 -151 -4 -157 11 -124 9 19 22 41 29 50 7 8
16 34 19 58 3 24 13 52 22 62 15 16 14 20 -6 54 l-22 37 32 68 c37 80 37 81
11 131 -25 49 -25 73 1 130 37 82 6 144 -58 113z"/>
<path d="M2321 2334 c0 -11 3 -14 6 -6 3 7 2 16 -1 19 -3 4 -6 -2 -5 -13z"/>
<path d="M2330 2299 c0 -23 52 -101 88 -131 109 -91 287 -64 370 56 17 27 32
53 32 60 0 6 -10 -5 -21 -24 -34 -56 -61 -81 -114 -106 -59 -28 -147 -32 -203
-9 -49 21 -110 80 -133 130 -10 22 -19 33 -19 24z"/>
<path d="M4140 1976 c0 -14 4 -27 8 -30 5 -3 6 8 4 25 -5 35 -12 38 -12 5z"/>
<path d="M4550 1963 c0 -5 12 -20 28 -34 l27 -24 -25 30 c-14 17 -26 32 -27
34 -2 2 -3 0 -3 -6z"/>
<path d="M2971 1951 c-17 -11 -7 -41 14 -41 10 0 14 8 13 25 -3 27 -6 29 -27
16z"/>
<path d="M3010 1936 c0 -8 5 -18 10 -21 6 -3 10 3 10 14 0 12 -4 21 -10 21 -5
0 -10 -6 -10 -14z"/>
<path d="M4160 1926 c0 -2 7 -7 16 -10 8 -3 12 -2 9 4 -6 10 -25 14 -25 6z"/>
<path d="M4450 1920 c-9 -6 -10 -10 -3 -10 6 0 15 5 18 10 8 12 4 12 -15 0z"/>
<path d="M2941 1902 c25 -41 89 -41 110 1 l12 22 -25 -22 c-13 -13 -33 -23
-43 -23 -10 0 -30 10 -43 23 l-25 22 14 -23z"/>
<path d="M2119 1761 c-7 -18 -6 -28 5 -40 14 -13 18 -12 41 9 33 31 29 55 -9
55 -21 1 -30 -5 -37 -24z"/>
<path d="M3233 1767 c-3 -5 -3 -11 0 -14 3 -3 544 -6 1201 -7 1057 -1 1196 1
1196 14 0 13 -140 15 -1196 15 -658 0 -1198 -4 -1201 -8z"/>
<path d="M1908 1704 c-10 -21 -16 -40 -13 -42 7 -8 37 47 33 64 -2 10 -9 3
-20 -22z"/>
<path d="M5869 1723 c-13 -16 -12 -17 4 -4 9 7 17 15 17 17 0 8 -8 3 -21 -13z"/>
<path d="M2279 1718 c13 -18 77 -26 67 -9 -3 5 -15 7 -26 4 -11 -3 -28 1 -38
8 -15 13 -16 12 -3 -3z"/>
<path d="M5987 1709 c7 -7 15 -10 18 -7 3 3 -2 9 -12 12 -14 6 -15 5 -6 -5z"/>
<path d="M3230 1690 c0 -6 47 -10 123 -9 95 1 112 3 77 10 -66 11 -200 11
-200 -1z"/>
<path d="M5390 1690 c0 -6 47 -10 120 -10 73 0 120 4 120 10 0 6 -47 10 -120
10 -73 0 -120 -4 -120 -10z"/>
<path d="M5505 1552 c-49 -12 -55 -37 -53 -245 1 -188 1 -188 26 -207 20 -16
40 -20 107 -20 l83 0 45 -50 c26 -29 54 -50 66 -50 11 0 40 21 67 50 25 27 51
47 56 44 15 -9 298 7 298 18 0 5 -21 6 -47 2 l-48 -6 3 210 c4 274 23 252
-215 252 -98 1 -218 3 -268 5 -49 2 -103 1 -120 -3z m223 -128 c15 -11 27 -13
35 -6 25 20 75 24 106 8 37 -20 51 -44 51 -90 0 -31 -10 -47 -71 -111 -94 -99
-103 -99 -197 -1 -64 66 -72 78 -72 113 0 21 7 49 16 61 29 42 92 54 132 26z"/>
<path d="M3106 1524 c-13 -13 -16 -48 -17 -212 -1 -108 -1 -200 -1 -203 1 -4
-53 -8 -119 -8 -66 -1 -130 -6 -142 -11 -14 -6 39 -9 151 -9 l173 -1 -21 22
c-18 19 -20 35 -20 147 0 69 -3 156 -6 192 -6 61 -5 67 17 83 13 9 18 16 12
16 -6 0 -19 -7 -27 -16z"/>
<path d="M3615 1382 c24 -47 8 -83 -75 -169 -64 -66 -72 -71 -97 -64 -16 5
-57 37 -92 72 -34 35 -58 55 -53 44 6 -11 38 -47 72 -79 59 -56 63 -58 103
-53 35 5 50 14 89 59 26 29 55 68 64 87 19 39 13 96 -11 120 -14 14 -14 12 0
-17z"/>
<path d="M2330 1383 c0 -16 11 -24 44 -35 42 -14 44 -14 33 4 -7 10 -19 16
-29 13 -10 -4 -22 3 -32 17 -16 22 -16 22 -16 1z"/>
<path d="M6512 1377 c-24 -25 -28 -37 -12 -37 11 0 45 48 38 55 -2 3 -14 -5
-26 -18z"/>
<path d="M2804 1368 l-19 -23 23 19 c12 11 22 21 22 23 0 8 -8 2 -26 -19z"/>
<path d="M2160 1360 c0 -22 -25 -28 -33 -7 -3 7 -6 5 -6 -6 -1 -13 6 -17 27
-15 15 1 33 -1 39 -5 6 -4 14 -3 17 2 3 5 -1 11 -9 15 -8 3 -15 12 -15 21 0 8
-4 15 -10 15 -5 0 -10 -9 -10 -20z"/>
<path d="M6620 1364 c0 -3 9 -13 20 -22 19 -17 45 -112 57 -212 2 -25 9 -53
14 -63 6 -9 8 -21 5 -26 -3 -5 11 -11 32 -15 59 -9 300 -7 307 3 3 6 -29 7
-83 4 -89 -6 -208 2 -229 15 -6 4 -24 63 -39 130 -21 96 -24 126 -15 135 8 8
74 13 219 15 113 1 210 6 214 10 4 4 -97 7 -225 7 -169 0 -238 4 -254 13 -13
7 -23 10 -23 6z"/>
<path d="M2008 1343 c-89 -5 -88 -23 1 -23 52 0 70 4 75 15 3 8 2 14 -2 13 -4
-1 -37 -3 -74 -5z"/>
<path d="M2990 1340 c-23 -7 -23 -8 -3 -9 12 -1 25 4 28 9 3 6 5 10 3 9 -2 -1
-14 -5 -28 -9z"/>
<path d="M1605 1330 c3 -5 31 -10 61 -10 34 0 53 4 49 10 -3 6 -31 10 -61 10
-34 0 -53 -4 -49 -10z"/>
<path d="M2568 1333 c6 -2 18 -2 25 0 6 3 1 5 -13 5 -14 0 -19 -2 -12 -5z"/>
<path d="M6273 1333 c9 -2 25 -2 35 0 9 3 1 5 -18 5 -19 0 -27 -2 -17 -5z"/>
<path d="M2398 1270 c-27 -5 -64 -18 -83 -30 -36 -22 -97 -91 -108 -122 -9
-25 -77 -24 -127 2 -52 27 -64 25 -20 -3 l35 -22 -35 -6 c-23 -4 -6 -7 50 -8
l85 -1 2 -60 c2 -94 41 -159 133 -222 l25 -17 -43 0 c-26 -1 -41 -5 -37 -11 7
-12 288 -12 325 0 21 7 18 8 -20 10 l-45 1 25 17 c95 65 131 124 136 222 3 80
-19 131 -82 190 l-44 40 88 2 c79 1 74 2 -43 8 -71 4 -139 9 -150 12 -11 3
-41 2 -67 -2z"/>
<path d="M3946 1254 c-4 -9 -3 -21 2 -26 12 -12 23 15 12 31 -5 9 -9 8 -14 -5z"/>
<path d="M4740 1246 c0 -14 5 -26 10 -26 6 0 10 9 10 19 0 11 -4 23 -10 26 -6
4 -10 -5 -10 -19z"/>
<path d="M5090 1243 c0 -13 5 -23 10 -23 13 0 13 11 0 30 -8 12 -10 11 -10 -7z"/>
<path d="M5252 1240 c0 -14 2 -19 5 -12 2 6 2 18 0 25 -3 6 -5 1 -5 -13z"/>
<path d="M6168 1253 c28 -2 76 -2 105 0 28 2 5 3 -53 3 -58 0 -81 -1 -52 -3z"/>
<path d="M3756 1241 c-4 -7 -5 -15 -2 -18 9 -9 19 4 14 18 -4 11 -6 11 -12 0z"/>
<path d="M4930 1235 c0 -8 5 -15 10 -15 6 0 10 7 10 15 0 8 -4 15 -10 15 -5 0
-10 -7 -10 -15z"/>
<path d="M5410 1236 c0 -9 5 -16 10 -16 6 0 10 4 10 9 0 6 -4 13 -10 16 -5 3
-10 -1 -10 -9z"/>
<path d="M3648 1093 c12 -2 30 -2 40 0 9 3 -1 5 -23 4 -22 0 -30 -2 -17 -4z"/>
<path d="M3252 1079 c10 -6 24 -9 32 -7 15 3 96 -66 96 -82 0 -6 14 -10 30
-10 17 0 30 5 30 12 0 6 -3 8 -7 4 -4 -3 -28 14 -54 40 -41 40 -53 47 -95 49
-36 3 -44 1 -32 -6z"/>
<path d="M3528 1083 c6 -2 18 -2 25 0 6 3 1 5 -13 5 -14 0 -19 -2 -12 -5z"/>
<path d="M1670 1029 c0 -5 28 -9 63 -8 71 1 67 5 -10 12 -29 2 -53 0 -53 -4z"/>
<path d="M1925 1030 l-60 -7 73 -1 c42 -1 72 2 72 8 0 6 -6 9 -12 8 -7 -1 -40
-4 -73 -8z"/>
<path d="M6357 814 c4 -10 -3 -14 -21 -14 -14 0 -26 -4 -26 -10 0 -6 57 -10
153 -10 117 1 148 3 133 12 -11 6 -57 10 -105 9 -57 0 -95 4 -113 13 -23 12
-26 12 -21 0z"/>
<path d="M4314 580 c-30 -11 142 -21 222 -14 41 4 72 9 69 13 -8 8 -269 9
-291 1z"/>
</g>
</svg>
